<?xml version="1.0" encoding="utf-8"?>
<!-- Generator: Adobe Illustrator 26.5.0, SVG Export Plug-In . SVG Version: 6.00 Build 0)  -->
<svg version="1.1" id="Layer_1" focusable="false" xmlns="http://www.w3.org/2000/svg" xmlns:xlink="http://www.w3.org/1999/xlink"
	 x="0px" y="0px" viewBox="0 0 576 512" style="enable-background:new 0 0 576 512;" xml:space="preserve">
<style type="text/css">
	.st0{fill:#FFFFFF;}
</style>
<g>
	<path class="st0" d="M487.2,500c-0.2,0-0.4,0-0.6,0c-8.3-0.4-14.7-7.3-14.3-15.6c0.1-2.1,0.1-4,0.1-5.9
		c0-96.3-82.7-174.6-184.3-174.6s-184.3,78.3-184.3,174.6c0,8.3-6.7,15-15,15s-15-6.7-15-15c0-54.8,22.4-106.3,63-144.9
		c40.4-38.5,94.2-59.7,151.3-59.7s110.8,21.2,151.3,59.7c40.7,38.7,63,90.1,63,144.9c0,2.3-0.1,4.6-0.2,7.1
		C501.8,493.7,495.2,500,487.2,500z"/>
	<path class="st0" d="M282.6,283.3c-72.4,0-131.4-58.9-131.4-131.4c0-72.4,58.9-131.3,131.4-131.3C355,20.6,414,79.5,414,151.9
		C414,224.4,355,283.3,282.6,283.3z M282.6,50.6c-55.9,0-101.4,45.5-101.4,101.3c0,55.9,45.5,101.4,101.4,101.4
		c55.9,0,101.4-45.5,101.4-101.4C384,96.1,338.5,50.6,282.6,50.6z"/>
</g>
</svg>
