<?xml version="1.0" encoding="utf-8"?>
<!-- Generator: Adobe Illustrator 26.5.0, SVG Export Plug-In . SVG Version: 6.00 Build 0)  -->
<svg version="1.1" id="Layer_1" focusable="false" xmlns="http://www.w3.org/2000/svg" xmlns:xlink="http://www.w3.org/1999/xlink"
	 x="0px" y="0px" viewBox="0 0 576 512" style="enable-background:new 0 0 576 512;" xml:space="preserve">
<style type="text/css">
	.st0{fill:#FFFFFF;}
</style>
<g>
	<g>
		<line class="st0" x1="569" y1="469" x2="7" y2="469"/>
		<path class="st0" d="M560,478H16c-5,0-9-4-9-9l0,0c0-5,4-9,9-9h544c5,0,9,4,9,9l0,0C569,474,565,478,560,478z"/>
	</g>
	<path class="st0" d="M317,387.4l138.8-117.9c25.5-21.5,19-39-14.2-39h-64.4V66.8c0-13.9-11.3-25.2-25.2-25.2H223.6
		c-13.9,0-25.2,11.3-25.2,25.2v163.8h-19.1H134c-33.3,0-39.7,17.6-14.3,39.1l135,116.1C280,407.3,291.6,408.8,317,387.4z"/>
</g>
</svg>
