<?xml version="1.0" encoding="utf-8"?>
<!-- Generator: Adobe Illustrator 21.0.1, SVG Export Plug-In . SVG Version: 6.00 Build 0)  -->
<svg version="1.1" id="Layer_1" focusable="false" xmlns="http://www.w3.org/2000/svg" xmlns:xlink="http://www.w3.org/1999/xlink"
	 x="0px" y="0px" viewBox="0 0 352 512" style="enable-background:new 0 0 352 512;" xml:space="preserve">
<style type="text/css">
	.st0{fill:#FFFFFF;}
</style>
<path class="st0" d="M242.7,256l100.1-100.1c12.3-12.3,12.3-32.2,0-44.5l-22.2-22.2c-12.3-12.3-32.2-12.3-44.5,0L176,189.3
	L75.9,89.2c-12.3-12.3-32.2-12.3-44.5,0L9.2,111.4c-12.3,12.3-12.3,32.2,0,44.5L109.3,256L9.2,356.1c-12.3,12.3-12.3,32.2,0,44.5
	l22.2,22.2c12.3,12.3,32.2,12.3,44.5,0L176,322.7l100.1,100.1c12.3,12.3,32.2,12.3,44.5,0l22.2-22.2c12.3-12.3,12.3-32.2,0-44.5
	L242.7,256z"/>
</svg>
